<svg xmlns="http://www.w3.org/2000/svg" width="204.8" height="47.5" viewBox="0 0 1024 237.68"><g fill="var(--title,#1e1e1c)"><path d="M457.35 96.98H417.5c-1.18-7.73-4.5-13.58-9.96-17.57-5.47-3.98-12.43-5.98-20.9-6-8.53.14-15.42 2.39-20.65 6.73a37.18 37.18 0 0 0-11.41 16.82 65.48 65.48 0 0 0-3.51 21.88c-.04 7.71 1.13 15 3.51 21.87a37.09 37.09 0 0 0 11.4 16.82c5.24 4.35 12.13 6.6 20.66 6.74 9.35-.08 16.64-2.6 21.86-7.56 5.22-4.95 8.23-11.87 9-20.73h39.86c-.81 13.18-4.3 24.43-10.44 33.74a60.15 60.15 0 0 1-24.54 21.37c-10.22 4.93-21.85 7.42-34.88 7.46-15.51-.17-28.96-3.77-40.35-10.81a72.14 72.14 0 0 1-26.45-28.53c-6.24-11.97-9.41-25.43-9.49-40.38.08-14.94 3.25-28.41 9.5-40.38a72.14 72.14 0 0 1 26.44-28.52c11.38-7.05 24.84-10.65 40.35-10.81a82.14 82.14 0 0 1 32.54 6.8 66.8 66.8 0 0 1 26.06 19.67c6.92 8.62 10.67 19.07 11.26 31.4M515.53 104.15h60.73c-.56-8.58-3.46-15.75-8.71-21.52-5.23-5.76-12.03-8.76-20.36-8.99-8.7.14-15.77 2.96-21.23 8.46-5.45 5.5-8.93 12.85-10.43 22.05m109.66 27.34H515.53c.47 10.36 3.56 18.57 9.25 24.65 5.69 6.07 13.74 9.18 24.14 9.31a34.5 34.5 0 0 0 16.66-4.1 25.23 25.23 0 0 0 11.26-12.3h45.77c-3.12 11.48-8.38 20.88-15.8 28.19a68.7 68.7 0 0 1-26.36 16.15 97.55 97.55 0 0 1-32.1 5.16c-24.69-.18-44.4-7.16-59.12-20.94-14.72-13.78-22.26-33.27-22.63-58.5.18-15.37 3.88-28.94 11.1-40.7a77.28 77.28 0 0 1 29.03-27.66c12.12-6.69 25.6-10.08 40.47-10.2 17.85.18 32.7 4.29 44.52 12.32 11.83 8.03 20.56 18.87 26.18 32.53 5.62 13.66 8.05 29.02 7.3 46.1M799.99 42.34h39.86v153h-39.86z"/><path d="M680.6 104.15h60.73c-.56-8.58-3.46-15.75-8.7-21.52-5.24-5.76-12.03-8.76-20.37-8.99-8.7.14-15.77 2.96-21.23 8.46-5.45 5.5-8.92 12.85-10.43 22.05m109.66 27.34H680.6c.48 10.36 3.56 18.57 9.25 24.65 5.7 6.07 13.74 9.18 24.14 9.31 6.04 0 11.6-1.36 16.66-4.1a25.26 25.26 0 0 0 11.26-12.3h45.77c-3.11 11.48-8.38 20.88-15.8 28.19a68.7 68.7 0 0 1-26.35 16.15 97.59 97.59 0 0 1-32.11 5.16c-24.69-.18-44.4-7.16-59.12-20.94-14.72-13.78-22.26-33.27-22.62-58.5.18-15.37 3.88-28.94 11.1-40.7a77.3 77.3 0 0 1 29.02-27.66c12.12-6.69 25.6-10.08 40.46-10.2 17.87.18 32.7 4.29 44.53 12.32 11.84 8.03 20.56 18.87 26.18 32.53 5.62 13.66 8.05 29.02 7.3 46.1"/><path d="M162.97 88.16a42.84 42.84 0 1 1 60.56 60.6 42.84 42.84 0 0 1-60.56-60.6M87.37 12.54a42.83 42.83 0 1 1 60.58 60.6 42.83 42.83 0 1 1-60.58-60.6"/><path d="M89.7 164.55a42.83 42.83 0 1 1 60.57 60.58 42.83 42.83 0 0 1-60.57-60.58"/></g><g fill="#00a6d6"><path d="M965.29 42.35h58.7v153h-37.51V79.2h-.41l-32.13 116.16h-30.46L891.35 79.2h-.41v116.16h-37.5v-153h58.69l26.35 101.97h.45z"/><path d="M12.54 87.37a42.83 42.83 0 1 1 60.58 60.59 42.82 42.82 0 0 1-60.58 0 42.85 42.85 0 0 1 0-60.6"/></g></svg>