<svg xmlns="http://www.w3.org/2000/svg" width="164.5" height="50" viewBox="0 0 1024 311.3"><path fill="var(--title,#0627b3)" d="M651.4 310.6c-23-3.7-52.4-15.7-70-28.4a169 169 0 0 1-31-31.6l-8.4-11.2a183.2 183.2 0 0 1-37.8 39 190 190 0 0 1-47.2 23c-14.9 5.5-48.4 7.7-68.7 4.4a153 153 0 0 1-31.6-8.8c-25.5-11.7-36-18.4-49.8-32-5-5-12.6-13.6-16.7-19.2l-7.7-10.2-2.3 3.8a165 165 0 0 1-39.9 40.7 250 250 0 0 1-43.5 20.6c-14 4-25.7 5.6-43 5.6-27.6 0-38.7-2.5-66.8-14.8-16.5-7.4-28-15.3-41.7-29A154 154 0 0 1 2 180.8c-2.5-14-2.5-42.4 0-55.6a155 155 0 0 1 41.7-78.9A151 151 0 0 1 193 5a159 159 0 0 1 48.7 23.2l3.8 3.2L228.7 48l-16.7 17-10.3-5.5c-15.6-8-26.8-11-44-11.6-15-.6-25.4.8-38.8 5.2a107 107 0 0 0-68.4 74.5c-3.7 14.5-4 36.1-.4 50.4 4.9 19.1 18 41.9 31.8 54.2 12.4 11 28.7 19.9 44.6 24.2 13 3.6 33.8 4.1 47.2 1.3a108 108 0 0 0 83.6-81.3c1-4.5 2.4-16.2 2.8-26 .6-9.9 2-22.2 3.2-27.6A155 155 0 0 1 376.8 5.2c12.2-3.3 13.4-3.4 35.9-3.4 25 0 28.4.4 46.5 6 24.8 8 44 19.8 62.7 38.6 6.9 7 14.7 16 17.3 20s5 7.3 5.4 7.3c.3 0 2.4-2.6 4.4-5.8 2-3 7.6-9.6 12.3-14.5a152 152 0 0 1 196.4-22.6c15.2 10 39.5 34.4 41.8 41.9 1 3 2.4 1.7 9.6-8.7A152.1 152.1 0 0 1 925.5 2.5a148 148 0 0 1 98.2 30.6c.2.6-7.2 8.5-16.4 17.7l-16.6 16.6-9-4.9a105 105 0 0 0-91.8-3.8 114 114 0 0 0-42.7 33.7c-27.3 38.5-28.2 84.7-2.6 122.9a104 104 0 0 0 87 46.6 97 97 0 0 0 50.2-12.2l8.8-4.9c.7-.3 33.4 32.3 33.4 33.4 0 3.3-27.2 17.8-43.7 23.2a155 155 0 0 1-70 6c-18.8-2.4-27.4-5.2-49.7-16.3a148 148 0 0 1-76.7-98.4 148 148 0 0 0-3.2-12c-.8-1.3-13.9-1.5-106-1.9-101.5-.2-105.1-.2-105.1 1.8 0 2.7 5.6 19.2 8.5 25a109 109 0 0 0 70.3 56.6c14 3.5 35.7 3.2 50.4-.7a105 105 0 0 0 43.9-23.3 43 43 0 0 1 5.4-4.4c.3 0 7.9 7.4 16.8 16.2 13.7 13.8 16 16.6 15 18.2-1.4 2.3-19.5 17-23.1 18.8-1.6.7-7.8 4.1-14.1 7.5a148 148 0 0 1-39 14.5 256 256 0 0 1-52.3 1.6M430 259.8a122 122 0 0 0 44.9-18.9c7.7-5.5 19.5-17.4 25.2-25.3 6.4-9 14.7-27.7 17.1-38.6 2.8-13 2.5-34-.5-46Q505.6 88.7 473 67a101 101 0 0 0-30.8-14.5c-8.7-2.7-11.2-3-28-3-19.3-.2-24.8.8-40.2 6.6a107 107 0 0 0-60.2 62.7c-8.7 24-8 51.8 1.8 76.2a113 113 0 0 0 39.1 47.9c13 8.6 29.3 15 44.9 17.2 5.8 1 23.6.6 30.3-.3m345.1-127a108.2 108.2 0 0 0-59.5-71 102 102 0 0 0-78-2.8c-24.2 9-41.5 23-54 43.3a116 116 0 0 0-12.6 28.8l-.6 3.2h102.4c85 0 102.3-.3 102.3-1.4"/></svg>