<svg xmlns="http://www.w3.org/2000/svg" width="238.2" height="41.5" viewBox="0 0 238.2 41.5"><path fill="#ea1d25" transform="translate(0 -.4)" d="M31.5 19.5q-.1-2.3-1.3-4.3L23.4 3.3q-.8-1.4-1.1-2.9l-.3.5a10 10 0 0 0 0 9.5l5.5 9.5a10 10 0 0 1 0 9.5l-.3.5q-.3-1.5-1.1-2.9l-5-8.7-3.2-5.6q-.8-1.4-1.1-2.9l-.3.5a10 10 0 0 0 0 9.5l5.5 9.5a10 10 0 0 1 0 9.5l-.3.5q-.3-1.5-1.1-2.9l-6.9-11.9q-1.3-2.5-1.3-5.2C5.1 21.2 0 25.3 0 30c0 6.6 9.8 11.9 21.9 11.9S43.8 36.6 43.8 30c.1-4.5-4.9-8.6-12.3-10.5m20.7 20.3c.1-1.7.3-2.8.8-4.2 2.3 1.1 5.3 1.6 7.5 1.6q5.8 0 6-3.7c0-2.4-1.6-3.5-5.4-5.2l-2.1-.8c-3.9-1.7-6.5-3.9-6.5-8.2 0-4.7 3.3-7.7 9.9-7.7q4 0 7.5 1.2-.2 2.4-.8 4.1c-2.2-.8-4.9-1.2-6.8-1.2q-5.3.1-5.2 3.6 0 3 4.5 4.6l2.2.9c5.2 2.2 7.4 4.6 7.4 8.6 0 4.7-3.6 8-10.6 8q-5 0-8.4-1.6m41.1-19.7v20.6h-4.2l-.2-2.5a6 6 0 0 1-5.8 3c-5.4 0-9.1-4-9.1-10.9 0-7.2 3.9-11.4 11.5-11.4q4.4 0 7.8 1.2M88.8 36V23.1q-1.4-.2-3.3-.2c-4.7 0-6.9 2.9-6.9 7.5 0 4.2 1.7 7.2 5.7 7.2q2.8-.2 4.5-1.6m27.7-9.1v13.8H112v-13c0-3.3-1.1-4.8-5.6-4.8l-3.6.3v17.5h-4.5V20.1c2.9-.7 6.1-1.2 8.2-1.2 7.6.1 10 3 10 8m12.6 10.5q2 0 3.5-.6l-.5 3.8q-1.9.7-3.8.7c-4.4 0-7.2-2-7.2-7V12.6a14 14 0 0 1 4.5-.7v7.8h7.2l-.4 3.9h-6.8v10.1q.1 3.8 3.5 3.7m24.3-17.3v20.6h-4.2l-.2-2.5a6 6 0 0 1-5.8 3c-5.4 0-9.1-4-9.1-10.9 0-7.2 3.9-11.4 11.5-11.4q4.3 0 7.8 1.2M148.8 36V23.1q-1.3-.2-3.3-.2c-4.7 0-6.9 2.9-6.9 7.5 0 4.2 1.7 7.2 5.7 7.2q2.8-.2 4.5-1.6m27.8-9.1v13.8H172v-13c0-3.3-1.1-4.8-5.6-4.8l-3.6.3v17.5h-4.5V20.1c2.9-.7 6.1-1.2 8.2-1.2 7.6.1 10.1 3 10.1 8m22.9-15v28.8h-4.2l-.2-2.6q-1.6 3-5.9 3.1c-5.4 0-9.1-4-9.1-10.9 0-7.2 3.9-11.4 11.5-11.4q1.8 0 3.4.3v-6.8q2.2-.6 4.5-.5M195 36V23.3q-1.8-.3-3.6-.4c-4.5 0-6.6 2.8-6.6 7.5 0 4.2 1.7 7.2 5.7 7.2q2.7-.2 4.5-1.6m27.3-4.1h-14.5q.8 5.5 6.8 5.4 3.8 0 7.2-1.6l-.7 4.1q-3 1.3-6.7 1.3c-7.6 0-11.2-4.2-11.2-11.2 0-6.1 2.8-11 10-11 6.5 0 9.3 4.2 9.3 9.4q0 2-.2 3.6m-14.5-3.8H218q-.1-5.2-4.9-5.4-4.9.1-5.3 5.4m30.4-8.9c0 1.4-.2 3-.4 3.9l-3.4-.2-3.3.2v17.6h-4.5V20.1a26 26 0 0 1 7.7-1.2c1.3.1 2.9.1 3.9.3"/></svg>