<svg xmlns="http://www.w3.org/2000/svg" width="1024" height="344" viewBox="0 0 1024 344"><path fill="#333" d="M454.3 343.9H1024V0H454.3Z"/><path fill="#333" d="M202.7 215.4c0 21.4-7 37.8-20.7 49.2a77.5 77.5 0 0 1-51.2 17.2 89.2 89.2 0 0 1-34.7-6.6A59.7 59.7 0 0 1 69.7 253 67.2 67.2 0 0 1 58.9 214h49.8c0 7.3 2 13 6.2 16.9 4.1 4 9.4 5.9 15.9 5.9 6.7 0 12-2 16-6 4.1-3.9 6.1-9.6 6.1-17a22.4 22.4 0 0 0-23-22.7h-7v-43.2h7c6.9 0 12-2 15.5-6 3.4-4 5.1-8.8 5.1-14.3 0-6.4-2-11.5-5.8-15.1a19.5 19.5 0 0 0-13.9-5.5c-5.5 0-10.1 1.8-14 5.5a19.5 19.5 0 0 0-5.7 14.8H61.4c0-19.8 6.6-35.6 19.8-47.4a71.7 71.7 0 0 1 49.6-17.8c20 0 36.6 6 49.7 18a59.5 59.5 0 0 1 19.7 46c0 18.6-7.4 32.7-22.4 42.2a54.3 54.3 0 0 1 24.9 47M395.6 126c1.2 9.3 1.7 24.6 1.7 46s-.5 36.7-1.7 46a62.7 62.7 0 0 1-8.9 25.6c-15 24.2-38.3 36.3-70 36.3h-80V64.1h80c31.7 0 55 12 70 36.3a62.7 62.7 0 0 1 9 25.7M343 206.9c.8-5.9 1.2-17.5 1.2-34.9s-.4-29-1.2-34.9a31.8 31.8 0 0 0-4.5-13.6c-5.5-8.1-14-12.1-25.5-12.1h-23.3v121.2H313c11.5 0 20-4 25.5-12 2.2-3.3 3.7-7.9 4.5-13.7"/><path fill="#fff" d="M629 268.6h-42.2L524 169.9v98.7h-48.3V72.3H518l62.8 98.7V72.3H629zM828.8 268.6h-50.4l-9.1-29.3h-60.4l-9.6 29.3h-50.5l71.4-196.3h37.2zM756.6 199 740 146.7l-17.7 52.4zM994.2 199.7c0 20.9-7.2 37.9-21.6 51a76.2 76.2 0 0 1-53.1 19.5c-21 0-38.5-6.5-52.8-19.5a66 66 0 0 1-21.4-51V72.3h48.3v126.3c0 9 2.3 16 6.9 21 4.6 5.1 11 7.6 19 7.6s14.5-2.5 19.3-7.6c4.8-5 7.2-12 7.2-21V72.3h48.2z"/><path fill="#333" d="M461.5.1H0V344h461.5Zm-31.2 312.5h-399V31.4h399Z"/></svg>