<svg xmlns="http://www.w3.org/2000/svg" width="1024" height="1024" viewBox="0 0 1024 1024"><path fill="#fff" d="M0 130.6h1024v762.7H0z"/><path fill="#333" d="M449.6 608.2c0 47.5-15.2 84-45.7 109.3-30.5 25.3-68.4 38-113.7 38a198 198 0 0 1-77-14.5c-23.1-9.6-42.6-26-58.6-49.4-15.9-23.3-23.8-52-23.8-86.1H241c0 16.1 4.6 28.6 13.8 37.3 9.2 8.8 21 13.2 35.3 13.2 14.8 0 26.7-4.4 35.7-13.2 9-8.7 13.4-21.4 13.4-38a49.7 49.7 0 0 0-51.1-50.5h-15.5V459h15.5c15.2 0 26.7-4.5 34.3-13.5 7.6-9 11.4-19.5 11.4-31.6a44 44 0 0 0-12.8-33.6 43.4 43.4 0 0 0-30.9-12.2c-12.1 0-22.4 4-31 12.2-8.5 8-12.7 19-12.7 33H136c0-44 14.7-79.1 44.1-105.4 29.4-26.2 66-39.3 110-39.3 44.4 0 81.2 13.3 110.3 40a132.1 132.1 0 0 1 43.8 102c0 41.2-16.6 72.3-49.8 93.4a120.5 120.5 0 0 1 55.1 104.3M877.8 410c2.5 20.5 3.7 54.5 3.7 102s-1.2 81.5-3.7 102a139 139 0 0 1-19.8 56.8c-33.2 53.8-85 80.7-155.4 80.7H525v-479h177.6c70.4 0 122.2 27 155.4 80.7a139 139 0 0 1 19.8 56.9M761.1 589.4c1.8-13 2.7-38.8 2.7-77.4a700 700 0 0 0-2.7-77.4c-1.8-13-5.2-23-10.1-30.2-12.1-18-31-27-56.5-27h-51.8v269.1h51.8c25.6 0 44.4-9 56.5-26.9 5-7.1 8.3-17.2 10-30.2"/><path fill="#333" d="M1024 130.6H0v762.8h1024ZM954.7 824H69.3V200h885.4Z"/></svg>