<svg xmlns="http://www.w3.org/2000/svg" width="1024" height="466.3" viewBox="0 0 1024 466.3"><path fill="var(--similar,#fff)" d="M31.2 31.3h399.1v281.1H31.2z"/><path fill="var(--invert,#333)" d="M454.3 343.8H1024V0H454.3ZM202.6 215.2c0 21.5-6.8 37.8-20.5 49.3a77.5 77.5 0 0 1-51.4 17.1 89.3 89.3 0 0 1-34.6-6.5 59.7 59.7 0 0 1-26.4-22.3A67.2 67.2 0 0 1 59 213.9h49.6c0 7.4 2 13 6.1 17 4.2 3.8 9.5 5.9 16 5.9 6.7 0 12-2 16-6s6.1-9.7 6.1-17a22.4 22.4 0 0 0-23-22.8h-7v-43.1h7c6.8 0 12-2 15.5-6 3.4-4 5.1-8.9 5.1-14.4a20 20 0 0 0-5.7-15 19.5 19.5 0 0 0-14-5.5c-5.4 0-10.1 1.8-14 5.5a19.4 19.4 0 0 0-5.7 14.8H61.3A60.6 60.6 0 0 1 81 80 71.7 71.7 0 0 1 130.6 62a70.9 70.9 0 0 1 49.9 18 59.4 59.4 0 0 1 19.6 46c0 18.6-7.4 32.6-22.4 42.1a54.3 54.3 0 0 1 24.8 47m193.2-89.3c1.1 9.2 1.6 24.5 1.6 46 0 21.4-.5 36.7-1.6 46a64 64 0 0 1-9 25.5c-15 24.3-38.4 36.4-70 36.4h-80V64h80c31.6 0 55 12.1 70 36.5a62.6 62.6 0 0 1 9 25.6M343 206.9c.8-5.9 1.1-17.5 1.1-34.9s-.3-29-1.1-34.9c-1-5.9-2.3-10.4-4.6-13.7-5.5-8-14-12-25.5-12h-23.3v121.2H313c11.5 0 20-4 25.5-12.1 2.3-3.2 3.7-7.8 4.6-13.8"/><path fill="var(--similar,#fff)" d="M629 268.5h-42.3L524 169.7v98.9h-48.1V72.2h42.1l62.9 98.7V72.2H629zm199.8 0h-50.4l-9.1-29.3h-60.4l-9.6 29.3h-50.5l71.4-196.3h37.2zm-72.2-69.6L740 146.5 722.4 199zm237.7.6c0 21-7.3 38-21.7 51a76.2 76.2 0 0 1-53 19.6 75.2 75.2 0 0 1-52.9-19.6 66 66 0 0 1-21.3-51V72.2h48.2v126.2c0 9 2.3 16 6.9 21.1 4.5 5 11 7.6 19 7.6s14.6-2.5 19.2-7.6a29.5 29.5 0 0 0 7.2-21.1V72.2h48.4z"/><path fill="var(--invert,#333)" d="M461.5 0H0v343.8h461.5Zm-31.2 312.5H31.2V31.3h399ZM65.8 465.7h-8V409l-20.7 45h-6.8L9 409v56.7h-8v-74.6h8l24.6 53 24-53h8zm74.4 0h-8.5l-6.1-16.9h-33l-6 17h-8.5l27.7-74.7h6.9zM123.4 442l-14-39.4L95.2 442zm66.7-43.6h-21.8v67.4h-8v-67.4h-22V391h51.6zm60.9 67.4H204v-74.6H251v7.2h-38.8v26.3h33.2v7h-33.2v27h38.9zm69.6 0H311l-17.2-33.1h-18.1v33.1h-8v-74.6h28.9c6.6 0 12 2 16.2 5.7a19.4 19.4 0 0 1 6.2 15 19 19 0 0 1-4.6 13.2 21 21 0 0 1-11.9 6.9zm-13.7-43.6c2.7-2.3 4-5.8 4-10.1 0-4.5-1.3-7.9-4-10.3a16.5 16.5 0 0 0-10.9-3.4h-20.2v27.3H296a16 16 0 0 0 11-3.5m30.3 43.6h8v-74.6h-8zm82.5 0h-8.6l-6-16.9h-33l-6 17h-8.7l27.8-74.7h6.8zm-17-23.8-14-39.4-14.2 39.4zm75.8 23.8H432v-74.6h8v67.4h38.6zm92.6-48.8a231 231 0 0 1 0 23 34.7 34.7 0 0 1-6.4 18c-5 5.2-11.4 7.8-19.9 7.8h-25.8v-74.6h25.8a26 26 0 0 1 19.9 7.9 34 34 0 0 1 6.4 17.8m-8 21.7a184 184 0 0 0 0-20.2 47 47 0 0 0-1.4-8 14.9 14.9 0 0 0-3.4-6.6c-3.4-3.7-8.2-5.4-14.9-5.4h-16.4v60.2h16.4c6.7 0 11.5-1.7 14.9-5.4a14.9 14.9 0 0 0 3.4-6.7 44 44 0 0 0 1.4-7.9m27.2 27.2h8v-74.6h-8zm82-48.8a234.5 234.5 0 0 1 0 23 40 40 0 0 1-1.8 9.2 25 25 0 0 1-4.5 8.7 26 26 0 0 1-20 8h-25.8V391h25.9c8.3 0 14.8 2.6 19.7 7.9a34 34 0 0 1 6.5 17.8m-8 21.7a181.4 181.4 0 0 0 0-20.2c-.2-2.4-.6-5-1.3-8a14.9 14.9 0 0 0-3.4-6.6c-3.5-3.7-8.4-5.4-14.9-5.4h-16.5v60.2h16.5c6.5 0 11.4-1.7 14.9-5.4a14.9 14.9 0 0 0 3.4-6.7c.7-2.9 1.1-5.5 1.2-7.9m78.8 27.2h-8.6l-6-16.9h-33l-6 17h-8.6l27.8-74.7h6.8zM726 442l-13.9-39.4L698 442zm-1.4-74-11.1 16h-7.3l9.6-16zM804 444a27.4 27.4 0 0 1-9.1 16.2 25 25 0 0 1-17.2 6c-7.5 0-13.8-2.4-18.7-7.3a20.6 20.6 0 0 1-6.3-10.8c-1-4-1.3-10.5-1.3-19.7 0-9.4.4-16 1.2-20a25.5 25.5 0 0 1 25.3-18c6.8 0 12.5 2 17 5.8 4.6 4 7.7 9.4 9.1 16.4h-8.3a17.4 17.4 0 0 0-18-15.1c-5.1 0-9.5 1.7-12.9 5.3a16 16 0 0 0-4.3 8.4c-.7 3.3-1 9-1 17.2 0 8 .3 13.7 1 17.1a16 16 0 0 0 4.3 8.3c3.4 3.5 7.8 5.3 13 5.3 4.6 0 8.6-1.4 11.8-4a19 19 0 0 0 6.3-11zm59.7-45.8h-21.9v67.4h-8v-67.4h-22V391h51.9zm14 67.4h8v-74.6h-8zm79.7-21.6a27.4 27.4 0 0 1-9.2 16.2 25 25 0 0 1-17.1 6c-7.6 0-13.8-2.4-18.9-7.3a21.2 21.2 0 0 1-6.1-10.8c-1-4-1.3-10.5-1.3-19.7 0-9.4.3-16 1.1-20 1-3.8 3-7.4 6.3-10.7a26 26 0 0 1 19-7.3c6.9 0 12.6 2 17.1 5.8a27.4 27.4 0 0 1 9 16.4H949a17.4 17.4 0 0 0-18-15.1c-5 0-9.4 1.7-12.8 5.3a16 16 0 0 0-4.5 8.4c-.6 3.3-.9 9-.9 17.2 0 8 .3 13.7 1 17.1a16 16 0 0 0 4.4 8.3c3.4 3.5 7.7 5.3 13 5.3 4.6 0 8.6-1.4 11.8-4a19 19 0 0 0 6.3-11zm65.3-35.4c.8 3.9 1.3 10.5 1.3 19.8 0 9.1-.5 15.7-1.3 19.6a21.7 21.7 0 0 1-6.4 10.9 25.6 25.6 0 0 1-18.6 7.3c-7.6 0-14-2.4-18.8-7.3a21.4 21.4 0 0 1-6.3-10.8c-.8-4-1.2-10.5-1.2-19.7 0-9.4.4-16 1.2-20 .9-3.8 3-7.4 6.3-10.7 4.9-4.9 11.2-7.3 18.8-7.3 7.6 0 13.7 2.4 18.8 7.3 3.4 3.5 5.4 7 6.4 10.9m-7.8 36.8c.7-3.3 1-9 1-17.2 0-8-.3-13.7-1-17.1a16 16 0 0 0-4.4-8.3 18 18 0 0 0-13-5.3c-5.1 0-9.5 1.7-13 5.3a16 16 0 0 0-4.4 8.4c-.6 3.3-.9 9-.9 17.2 0 8 .3 13.7 1 17.1a16 16 0 0 0 4.3 8.3 18 18 0 0 0 13 5.3c5.2 0 9.5-1.7 13-5.3 2.3-2.2 3.8-5.1 4.4-8.4"/></svg>