<svg xmlns="http://www.w3.org/2000/svg" width="1024" height="1024" viewBox="0 0 1024 1024"><path fill="#fff" d="M0 0h1024v1024H0z"/><path fill="#333" d="M461.5 608.8H960V308H461.5Z"/><path fill="#333" d="M241.3 496.3c0 18.8-6 33.1-18 43.1s-27 15-44.9 15a78.1 78.1 0 0 1-30.3-5.7 52.2 52.2 0 0 1-23.1-19.5 58.8 58.8 0 0 1-9.4-34H159c0 6.4 1.8 11.3 5.4 14.8 3.6 3.4 8.3 5.2 14 5.2 5.8 0 10.5-1.8 14-5.2 3.5-3.5 5.3-8.5 5.3-15a19.6 19.6 0 0 0-20.2-19.9h-6v-37.7h6c6 0 10.6-1.8 13.6-5.3s4.5-7.7 4.5-12.5c0-5.6-1.7-10-5-13.2a17.1 17.1 0 0 0-12.3-4.8c-4.7 0-8.8 1.6-12.2 4.8a17 17 0 0 0-5 13h-43.5a53 53 0 0 1 17.4-41.5 62.7 62.7 0 0 1 43.3-15.6 62 62 0 0 1 43.6 15.8 52 52 0 0 1 17.2 40.2c0 16.3-6.5 28.6-19.6 36.9a47.5 47.5 0 0 1 21.7 41.1M410.2 418.2c1 8 1.4 21.4 1.4 40.2 0 18.7-.4 32.1-1.4 40.2-1 8-3.6 15.5-7.8 22.4-13.1 21.2-33.6 31.8-61.3 31.8h-70V364h70c27.7 0 48.2 10.6 61.3 31.9a54.8 54.8 0 0 1 7.8 22.4m-46 70.7c.7-5.1 1-15.3 1-30.5s-.3-25.4-1-30.5c-.8-5.2-2-9.1-4-12-4.8-7-12.2-10.6-22.3-10.6h-20.4v106.1h20.4c10 0 17.5-3.5 22.3-10.6 2-2.8 3.2-6.8 4-12"/><path fill="#fff" d="M614.4 542.9h-37l-55-86.4V543h-42.1V371.2h36.9l55 86.3v-86.3h42.2zM789.2 542.9h-44.1l-8-25.6h-52.8l-8.4 25.6h-44.2l62.5-171.7h32.5zM726 482l-14.5-45.8-15.4 45.8zM934 482.6c0 18.3-6.4 33.2-19 44.6a66.7 66.7 0 0 1-46.4 17.1 65.8 65.8 0 0 1-46.2-17.1 57.7 57.7 0 0 1-18.7-44.6V371.2h42.2v110.4c0 7.9 2 14 6 18.5 4 4.4 9.6 6.6 16.7 6.6 7 0 12.7-2.2 16.8-6.6a25.8 25.8 0 0 0 6.3-18.5V371.2H934z"/><path fill="#333" d="M467.8 308H64v300.8h403.8Zm-27.3 273.4H91.3v-246h349.2Z"/><path fill="#333" d="M121.6 715.5h-7v-49.6l-18.1 39.3h-6L72 666v49.6h-7v-65.3h7l21.5 46.3 21-46.3h7zM186.7 715.5h-7.5l-5.3-14.8h-28.8l-5.3 14.8h-7.5l24.3-65.3h6zM172 694.7l-12.3-34.5-12.4 34.5zM230.3 656.5h-19v59h-7.1v-59H185v-6.3h45.2ZM283.6 715.5h-41v-65.3h41v6.3h-33.9v23h29v6.2h-29v23.5h34zM344.5 715.5h-8.3l-15-29h-15.9v29h-7v-65.3h25.3c5.8 0 10.5 1.7 14.2 5a17 17 0 0 1 5.4 13.2c0 4.6-1.3 8.5-4 11.5-2.5 3-6 5-10.4 6zm-12-38.2c2.4-2 3.6-5 3.6-8.8 0-3.9-1.2-6.9-3.6-9-2.4-2-5.6-3-9.5-3h-17.7v23.9H323c4 0 7.2-1 9.6-3.1M359.1 715.5h7v-65.3h-7zM431.3 715.5h-7.5l-5.3-14.8h-28.9l-5.2 14.8h-7.6l24.3-65.3h6zm-14.9-20.8-12.2-34.5-12.4 34.5zM482.8 715.5H442v-65.3h7v59h33.8zM563.8 672.8a202.2 202.2 0 0 1 0 20.1c-.1 2.4-.6 5-1.6 8.1-.9 3.1-2.3 5.6-4 7.6-4.3 4.6-10 6.9-17.4 6.9h-22.6v-65.3h22.6c7.3 0 13 2.3 17.4 6.9 1.7 2 3.1 4.5 4 7.6 1 3 1.5 5.7 1.6 8m-7 19a161 161 0 0 0 0-17.7c-.2-2.1-.5-4.4-1.2-7a13 13 0 0 0-3-5.8c-3-3.2-7.2-4.7-13-4.7h-14.4v52.7h14.4c5.8 0 10-1.5 13-4.7a13 13 0 0 0 3-5.9c.7-2.5 1-4.8 1.2-6.9M580.6 715.5h7v-65.3h-7zM652.4 672.8a205.2 205.2 0 0 1 0 20.1c-.1 2.4-.7 5-1.6 8.1-1 3.1-2.3 5.6-4 7.6-4.3 4.6-10.1 6.9-17.4 6.9h-22.6v-65.3h22.6c7.3 0 13 2.3 17.3 6.9 1.8 2 3.2 4.5 4.1 7.6 1 3 1.5 5.7 1.6 8m-7 19a158.7 158.7 0 0 0 0-17.7c-.2-2.1-.6-4.4-1.2-7a13 13 0 0 0-3-5.8c-3-3.2-7.3-4.7-13-4.7h-14.4v52.7h14.4c5.7 0 10-1.5 13-4.7a13 13 0 0 0 3-5.9c.6-2.5 1-4.8 1.1-6.9M714.2 715.5h-7.5l-5.3-14.8h-28.8l-5.3 14.8h-7.5l24.3-65.3h6zm-14.8-20.8-12.2-34.5-12.5 34.5zm-1.3-64.8-9.7 14H682l8.4-14zM767.5 696.6a24 24 0 0 1-8 14.2c-4 3.5-9 5.2-15 5.2-6.6 0-12.1-2.1-16.4-6.4-3-2.9-4.8-6-5.5-9.4-.8-3.5-1.1-9.2-1.1-17.3 0-8.2.3-14 1-17.4.8-3.4 2.6-6.5 5.6-9.4 4.3-4.3 9.8-6.4 16.5-6.4 6 0 11 1.7 15 5.1 4 3.4 6.7 8.2 7.9 14.3h-7.3a15.2 15.2 0 0 0-15.7-13.2c-4.5 0-8.3 1.5-11.3 4.6a14 14 0 0 0-3.8 7.4c-.6 2.9-.9 7.9-.9 15 0 7 .3 12 .9 15a14 14 0 0 0 3.8 7.3c3 3 6.8 4.6 11.4 4.6 4 0 7.5-1.2 10.3-3.5 2.8-2.4 4.7-5.6 5.5-9.7zM819.7 656.5h-19.1v59h-7v-59h-19.2v-6.3h45.3zM832 715.5h7v-65.3h-7zM901.7 696.6a24 24 0 0 1-8 14.2c-4 3.5-9 5.2-15 5.2-6.6 0-12.1-2.1-16.5-6.4-2.9-2.9-4.7-6-5.4-9.4-.8-3.5-1.1-9.2-1.1-17.3 0-8.2.3-14 1-17.4.8-3.4 2.6-6.5 5.5-9.4 4.4-4.3 9.9-6.4 16.6-6.4 6 0 11 1.7 15 5.1a24 24 0 0 1 7.9 14.3h-7.3a15.2 15.2 0 0 0-15.7-13.2c-4.5 0-8.3 1.5-11.3 4.6a14 14 0 0 0-3.9 7.4c-.5 2.9-.8 7.9-.8 15 0 7 .3 12 .8 15a14 14 0 0 0 3.9 7.3c3 3 6.8 4.6 11.4 4.6 4 0 7.5-1.2 10.3-3.5 2.8-2.4 4.7-5.6 5.5-9.7zM958.9 665.6c.7 3.4 1.1 9.2 1.1 17.3 0 8-.4 13.8-1.1 17.2a19 19 0 0 1-5.6 9.5A22.4 22.4 0 0 1 937 716c-6.7 0-12.2-2.1-16.5-6.4-3-2.9-4.7-6-5.5-9.4-.7-3.5-1-9.2-1-17.3 0-8.2.3-14 1-17.4.8-3.4 2.6-6.5 5.5-9.4 4.3-4.3 9.8-6.4 16.5-6.4 6.6 0 12 2.1 16.4 6.4 3 3 4.8 6.1 5.6 9.5m-6.8 32.2c.6-2.9.9-7.9.9-15 0-7-.3-12-.9-15a14 14 0 0 0-3.8-7.3c-3-3-6.9-4.6-11.4-4.6s-8.3 1.5-11.4 4.6a14 14 0 0 0-3.8 7.4c-.6 2.9-.8 7.9-.8 15 0 7 .2 12 .8 15a14 14 0 0 0 3.8 7.3c3 3 6.9 4.6 11.4 4.6s8.3-1.5 11.4-4.6c2-2 3.3-4.5 3.8-7.4"/></svg>