<svg xmlns="http://www.w3.org/2000/svg" width="108.5" height="89.5" viewBox="0 0 652 537.4"><g fill="#c0d00e"><path d="M531 297.8c-3.6-1.6-4.2-4.4-3-7.8.2-.7.2-1.3-.4-2-2.8-3.3-3.1-7.1-2.5-11.2l.8-5.8c.3-3.7.3-7.4 1-11 .8-3.8-.4-7.5-.5-11.1-.1-7.7-.2-15.4-2.4-23-4-14.7-10.2-28.3-18.2-41.2-2.5-4-6.2-6.7-9.7-9.6-1-.7-6.7-1-11-.7-4.4-.2-10.4 0-11.7.7-6.2 3.5-12.9 6-18.6 10.2-1.7 1.3-1.8 1.2 0 2.8l.4.8c.6 2.9 2.5 4 5.4 4.3 1.3.1 2.8 0 3 2l-3.5 2.6c-.6.4-2 .7-1.4 1.8.3.8 1.2.8 2 .6 1.4-.6 3-.2 4.3.3 1.2.4 1.8.2 2-.2l.2-.1 1.2-.2c1.8 3.5.7 5.3-3.6 6.3-.6.2-1.5.1-2 1.4 3.5-1 6.3-.3 8.6 2.4-3 3.7-3 3.8 1.5 5.3 2.7.9 4.5 2.4 5 5 .5 2.1 1.3 4 1.6 6.1 1 6 1.4 12 1.7 18.2.2 4.5-.3 8.9-.6 13.4-.3 4.3-.7 8.6-1.8 12.8-1 4-1.4 8.3-3 12.3l-4.7 12.4c-1.7 4.3-3.3 8.6-5.3 12.7-2 4-5 7.4-7.1 11.3a64 64 0 0 1-15.9 18.4c-3 2.5-6.1 3.8-9.4 4.2-1.8-.3-3.7-.7-5.5-1.4a33.5 33.5 0 0 1-15.8-13.3c-5.6-8-9.4-17-12-26.3a194.3 194.3 0 0 1-6.4-35.2l11.5 1.4-.1-.6 2.2.3-.3-.3.4.1 1.8.5h.2s.2 0 .4.4v-.3h.2v.3h.1l.2-.3c.3 0 .4.2.4.3l-.1.2c.2 0 .2-.1.3-.3l1.4.2c0 .2.2.2.3.3l2.8.6h.1c0-.2-.2-.4-.7-.5l-.2-.1-.2.2-.2-.1h-.4l-.1-.2-.5-.1c-.5-.1-.7-.2-.7-.3h.4l.2-.2.3.2c0-.2 0-.3.2-.4h.2l.3.4c.1 0 .2 0 .3-.2l.5.3v-.1H415.6l.9.3h.6l.5.5h.2v-.3l1 .3v.3h.1c.1 0 .3 0 .3-.2h.2l.4.3h.2c.1 0 .3 0 .7.3l.2-.1h.2c0-.2-.4-.4-1.5-.8l2.2.4.1.1h.2l1 .3v-.2c0 .3.3.4 1 .5h.1v-.1c.3 0 .5.2.6.3l.2-.1-1-.7h-.6c-1-.3-1.2-.5-1.2-.6l-.3.1v-.1l.2-.3-1-.7h.7c.1 0 .3 0 .3-.2-.4-.2-1.1-.5-2.4-.8l-.8-.4c0-.2 0-.4-.4-.5v-.1h-.1l-1.2-.4v-.3l-.2.1.1-.3h.5v-.2h-.4l-.7-.3v-.2h.2c.6 0 1 0 1-.2h.3v-.2h-.2v-.3h.3l.2.1.5.1s-.3-.3-1-.5v.1c-.5 0-.8-.3-1.2-.7l-.7-.1-.6-.5-.1.1c0-.2-.5-.3-1.3-.5l-.2.1-.2-.1-.3.1v-.4c-1-.4-1.6-.7-1.6-.9l-1-.4-.5-.2-.3-.1H409.4l-.1-.1h-.5l-.6-.2-1-.2.2-.2c-4.5-1.5-9.3-3-14.6-4.4a88.5 88.5 0 0 1 15.6-49.2l.4-.1.2-.3c1-1.2 2-2.3 3.2-3.4 1.4-2.3 3-4.5 5.3-6.3.3-.3.4-.6.6-1l-.3-.4c1.7-1.7 2.3-3 2-3.9l-.1-.2h-1v-.3l1-2-.1-.3c-.1-.3-.2-.4-.3-.3l-.2.1-.4.3s0-.2-.3 0l-.1-.3c.5-1 .8-1.7.6-2l-.5-.7-.9.4a6 6 0 0 0-1.1-1.4l-.4-.9.3-.1c.3-.1.4-.6.5-1.6-.2-.2-.4-.3-.5-.2l-.8 1h-.9l-.5.5-1-.6c-.3.5-1 1-2.5 1.6h-.8l-.3-.6.2-.1c.2-.1.4-.6.5-1.6-.2-.2-.4-.3-.5-.2-.2.5-.5.8-.7 1h-1l-.4.5-1.1-.6c-.2.5-1 1-2.5 1.6h-1.2l-.2.2-2.4 1.2h-.3l-2 .9c-.8 1-1.6 1.6-2.3 1.8a12.2 12.2 0 0 1-2.3 2.5l-.9 1.5c-.3.3-.4.9-.3 1.4l-.6.8h-.4a2 2 0 0 0-.4 1.1l-.1.3-.2-.2-.3.2.3.2-5 8c-5.2 9-9.4 18.6-12.1 28.5-1.6 5.7-3 11.3-4 17-8.4-1.5-17.5-2.6-27.4-3.4l-.2-3-.4-15c-.3-9.7-.4-19.8-1.9-29.6-2.5-16.7-3.3-68-3.3-68.5 0-9 .1-18 .5-26.4 1-24.3 4.1-43.8 9.6-61.3.9-2.9 2.3-5.7 4.3-8.7a11 11 0 0 1 9.1-4.8c15 0 35.2 26.4 35.3 26.7.3.4.7.6 1.2.2.4-.2.6-.7.4-1.1l-3.2-8.7C376.8 3.2 357.7 0 352.3 0H351c-15 1.4-26.2 10.2-33.2 26.3-.3.8-1 2.3.3 3.5.5.6 1.2 1.5 1.1 2.2 0 .9-1.4 1.6-2.5 2.4l-1 .4c-.9.3-2.2.8-2.6 2.3a48 48 0 0 1-2 5c-2.3 4.7-4.5 9.8-1.5 16.1.3.7.3 1.4.2 1.8 0 0-.1.2-.4.2a4 4 0 0 1-1-.2c-3.1-1.2-5.2 0-5.3 2.5-.2 3.9-1.2 7.7-2.1 11.3-.8 2.8-1.5 5.7-2 8.6-.5 3.9-1.1 5.5-3.3 7.9l.5-4.9c.6-5 1.1-9.6 2.7-14l3.8-10 3.9-10.5.4-1.3c1.3-3.3 2.5-6.7 2.7-11 0-.1-.1-.5-.3-.7a1 1 0 0 0-.8-.3c-2.9.1-3.8 2.3-4 3-2.7 5.6-5.8 11-8.8 16.2l-4.4 7.7c-3 5.4-4.5 11.5-5.9 17.3-.6 2.7-1.4 5.4-2.1 8l-1.4 4.6c-2.2 6.8-4.3 14-6 21.1 0 .9-12.7 83.5-12.3 123.4 0 2.4-.2 5-.4 7.4l-.2 1.2c-6.6 1.4-12.8 3-19 4.9l-7.8 2.5a500.8 500.8 0 0 0-19.4 6.5l-.5-3.2c-1.7-8.5-2.5-13-2.5-13.6l.6-1c-.3 0-.6-.7-.6-2a11 11 0 0 1-1.5-5.1c.4-.6.7-1 1.1-1-1.4-6.4-2.4-9.6-3-9.6-.3-3-.9-5.4-1.5-7.1l.5-1.5c-18-57.2-54.7-14.8-54.7-14.8-2.3 2.7-3.5 4.4-3.5 5-1.7 3.1-2.6 5.7-2.6 7.7a32 32 0 0 0-4.5 12.2c-2.4 5-5.3 13-8.6 23.7-1.7 6.5-2.9 10-3.5 10.6-1.1 5.1-1.8 7.7-2 7.7-1.5 5-2.4 7.6-3 7.6v-10.1c0-1.4.1-3.3.4-6.1v-10.1c0-6.7 3-26 3-26V194l.6-1.5c-.3 0-.5-.5-.5-1.5-2.7-2.3-4.2-5-4.6-7.6-2-1.4-3-2.4-3-3-1.7-2-2.4-3.3-2.4-4-3.4-.7-5-1.4-5-2.1l-5.7-3.6-3.5.6-1.5-.6c0 .4-2.4.7-7.1 1 0-.3-1.2-.5-3.6-.5-.3 0-.5.3-.5 1-4.7 4.1-7 6.5-7 7.1-2.5 3-3.6 6.9-3.6 11.6-.4 11.8-.9 17.8-1.5 17.8 0 5-.3 11.1-.6 18.2l.6 2a68 68 0 0 0-1 16.3v1.5c0 1.4-.3 2-1 2l1 1.1v2.6l-.5 2h.5l-.5 1h.5l-1 1v17.3c0 6.4-.2 16.6-.5 30.8l-.5 4c.3 0 .5.2.5.6h-.5v24.6l-.6 2h.6l-.6 1 .6 1-.6 1 .6.5c-.4 0-.6.2-.6.5v3.6l.6.5c-.4 0-.6.2-.6.6v16.2l.6 2c-.4 0-.6.6-.6 1.5v.6l.6 2H78l.6 2 .5 7.1c-.3 0-.5.3-.5.6.6 4.7 1.3 7 2 7 0 .4-.2.7-.5 1.2.3.3.5 1.3.5 3v.5c1.4 4.4 2 6.9 2 7.6v.6s2.7 16.6 20 17.6c0 0 20.3 1.3 29.7-9.6 1.5-1.8 4-5.6 7-11.6a78.6 78.6 0 0 1 6.2-17.2c1.3-5.7 2.6-9.4 3.5-11.1 2-6.5 3.4-10 4.1-10.7l-.5-.5 2.6-8.6c0-.3-.3-.6-.6-.6l-.5.6c-1 2.7-1.7 4-2 4v-1.4l6-22.3c1-.3 1.6-1.4 1.6-3v-.5c.3-1.7 1-3.3 2-4.5l-1-1.1v-1l.6-1h-.5v-2.1c0-.3.3-.6 1-1 .6-5.8 1.4-8.7 2.5-8.7v1h.5c.4 0 .6-.2.6-.5v-1.5c0-.4-.2-.6-.6-.6v-5.6c-.6 0-1 .2-1 .6v1l.6.5-.5.5h-1v-1c.3-.6 1-2.9 2-6.5h.6v.5l-.6 2.6h.6l.5-.5c1-3.8 1.7-5.6 2-5.6l-1-1h1v-1c-1 0-1.4-.4-1.4-1.1h.5c1.7 0 2.5-1.3 2.5-4.1 1.4-2.7 2-4.2 2-4.5l-.5-2c.3 0 .8-1 1.5-2.7h1v2.6h-.6l.5 1.1c-.6 0-1 .3-1 1h1v-.6h.6l1 4.5c.7 7.1 1.3 12.2 2 15.2.4 9.1 1 13.6 2.1 13.6 0 .4-.2.7-.5 1l1.5 16.7v3l.5 1h-.5v1c0 .3.3.6 1 .6v.5l-.6 1v1.5c.4.6.7 1.5 1 2.5h-.5c.3 3 .6 4.6 1 4.6 1 0 1.9 2.5 2.5 7.6l.5-.6h.6l1 .6-.6 1c0 .4.2.7.5 1l-.5 1c.3 3.7.9 5.7 1.5 6.1 0 .3-.2.5-.5.5l1.5 3v3c1.7 2.1 2.6 4 2.6 5.7h-.6c.3 3.3.9 5 1.5 5v-2.6l-.5-1v-1l1-.4.5 1h.5v-1c.7 0 1.2-1.4 1.5-4.5v-1h1c0 .7.3 2 1 3.6-.4 0-.6.6-.6 1.5l.6.6c.3 0 .6-.7 1-2h1.4l-.5.9h1c.3 0 .6 1.8 1 5.6v.5h.5c.3 1.7 1 2.6 2 2.6l1 3.5a41 41 0 0 0 2 11.2c.7 0 1.1-.3 1.1-1v-3h.5c0 1 .7 2.4 2 4.1.4 0 1-.2 1.6-.5l.5.5-.5 1c.6 0 1.2 1.8 1.5 5.6h.5v.5l-.5 1v1.5c.3.3 1 1.8 2 4.5l.6-.5c-.4-.4-.7-1.3-1.1-3h.5v-.6c0-2.7-.3-4.4-1-5h.6l-.5-4.1v-.6l.5-.5-.5-.5v-10.1c1 4.7 1.7 7 2 7h.5c0-.3-.2-.6-.5-1 0-.3.2-.7.5-1l-1-3 .6-1-1-2v-1c.7 0 1-.3 1-1v-1.2H215l-.5-4.5v-.6c.6 0 1 .2 1 .6.3 0 .5-.2.5-.6v-.5l-1.5-2.6c0-.6 0-1.5.5-2.5-.3 0-.5-.2-.5-.5v-4c0-.7-.2-1-.6-1l.6-1v-.5l-.6-.6h.6l-.6-2c.4-.7.6-1.2.6-1.5l-1.1-1.5v-1l1.5-.5-.5-1c.3-.6.6-1 1-1v-2c.6 0 .9 1.2.9 3.5v2c0 .4.3.6 1 .6l-.6 2 .6 1c-.4 0-.7.2-1 .6v.5c0 .3.2.5.5.5.4 2.4.9 3.6 1.5 3.6 0-.3.1-.6.6-.6-.3-5-.6-9.2-.6-12.6 0-.4-.3-.9-1-1.5v-6.3c1 0 1.6-.2 1.6-.5v-.5c-.3 0-.7.2-1.1.5-.3 0-.5-.5-.5-1.5 0-.7.3-1 1-1v-.5h-1v-1h1c-1-1-1.6-1.7-1.6-2 0-.4.2-.7.6-1.1-.4-3.7-.7-6.5-1-8v-2.1l.5 1.5h.6v-9.6l.5-1h-.5v-2h1v-.6l-1-1h1c0-1 .2-1.8.6-2.2l.3-.3h.5v-.2a248 248 0 0 1 28.4-16c3.8-2.2 7.9-4.5 12.8-7l-.1 1.4a132 132 0 0 0-.2 29.3l.6 8c.6 6.3 1 12.7 1.3 19 .1 1.3-.1 2.6-.2 3.9-.2 2-.4 4.3.1 6.6 3.1 14.4 5 29.2 6.7 43.5a672 672 0 0 0 2.5 19.9c.6 4.1 1.1 8.4 1.5 12.5.8 6.7 1.4 13.5 2.7 20.1 1.7 9 3.6 19.8 3.3 30.6-.2 3 .2 6 .7 9.3a267 267 0 0 0 8.7 37.3c.3 1 .3 2.1.3 3.2 0 2.1.1 4.3 1.7 5.7.8.6 1.8 1 2.7 1 1.2 0 2.5-.6 3.6-1a7 7 0 0 1 3.3-.9c4.5.6 7.9-1 10.1-5l1.3 1.2c.8.5 2 1.2 3.2 1.2.8 0 1.4-.2 2-.6 2.1-1.3 1.5-3.1 1-4.3a2 2 0 0 1-.2-.9c0-.6-.5-2.2-.5-3 1.4-.2 2.2-.6 2.8-1.4.6-1 .2-2.2-.2-3.2-.3-.4-.5-1-.4-1.3 0-1 0-2-.3-3a8 8 0 0 1 0-4.6 18 18 0 0 1 1.3 5.3c.3 2.2.6 4.6 2.2 6.5 0 .2.4.3.6.3 2 .3 3.9 0 5.7-.2 2.3-.3 4.4-.4 6.2 0 1 .2 2.2.3 3.4.3 1.7 0 4.7-.3 5.5-2.3 1.2-2.6 2.6-3 4-3 .7 0 1.5 0 2.4.3l1.7.2h.8c1.6 0 2.4-.6 2.7-1.2.6-.7.6-1.8.2-3-.8-2-.8-3.1 0-3.8 2.2-1.8 2-4 1.9-5.7l-.1-1.1c-.1-2.6-.3-5-.6-7.5 0-1 0-1.9-.2-2.8l.1-1 .1-.1c.5 1.6.6 3.3.7 5.2.1 3 .3 6 2 9 .1.3.5.4.8.4.3 0 .6-.1.7-.3 3.8-4.9 3.4-9.6 3-14.2a3482.3 3482.3 0 0 0-7.2-71.1 4252.5 4252.5 0 0 1-13.2-150.4l-.2-2.9v-3.2a237 237 0 0 1 24.6 0 5 5 0 0 1-.4 1.6 11 11 0 0 0 .4 8.3c0 1 1.4 1.6.9 2.8-.9-.7-.7-1.8-.9-2.8-.6 4.5-2.6 9.3 1 13.4.2.1 0 .7-.1.8-3 1-1.6 3.5-1.4 5.4l1.4 8.8c1 10.5 4 20.4 7 30.4 2.4 8.5 5.9 16.5 10.6 24 1.3 2 2.9 4 3.9 6 2 4.4 5.1 7.7 8.7 10.7a67.2 67.2 0 0 0 18.2 11 40.2 40.2 0 0 0 18.2 2.5c7.8.7 15.6-1 22.9-5.1 8.3-4.6 16-10.3 23.4-16.3a144 144 0 0 0 38-48c3.3-6.5 6.4-13 11.6-18.4.3-.7 0-1.3-.5-1.6"/><path d="m16 131.6 1-.5c2.4 5 4.6 7.6 6.6 7.6h.6c.3-1.4.6-2 1-2h.5l3.5 4h.6c.6 0 1-.2 1-.5v-.5l-.6-1c.3 0 .5 0 .5-.5h.6c2 2 3.2 3 3.5 3 1.3 0 2-.1 2-.5v-2c.4 0 1.8-.6 4.1-1.6h2v.5c0 .7 1 1.5 3 2.5.7-.3 1-.6 1-1-1-1-1.4-1.8-1.4-2.5 0-.4 0-1 .5-2l-.5-1.6 2-2c-.7-.7-1.2-3-1.5-6.6l1-2.6v-.5c0-2-.4-4-1-6.1l.5-.6c-.3-2-.5-3.7-.5-5-1.4-2.7-2-5-2-6.6a58.3 58.3 0 0 1-3.6-7c-1.7-1.8-2.6-2.7-2.6-3-.6-1.5-2-2.1-4-2.1v-2.3c-1-1.2-1.9-2-2.5-2l.5-.5v-.6l-1.5.6h-.5c-.4 0-.7-.6-1-1.5-3.3-.4-5-.7-5-1h-3c-.4 0-1.5.3-3 1 0-.4-.3-.6-.6-.6-.7 0-1.7.3-3 1.1l-1-.5c-1 .6-1.6 1.1-1.6 1.5l-1.5-.6c-1.7 1-2.6 2-2.6 3-4 2.4-6.1 4.6-6.1 6.6h.5c-.6.3-1.1 1.7-1.5 4 .4.4.6 1 .6 2.1l-1 .6v1l.5.5H0c0 .3.3.8 1 1.5l-.6 2.5c.4.7.6 1.3.6 2v3.6c1 1.1 1.5 1.9 1.5 2.6 0 2.7 2.6 5.6 7.6 8.6 1.2 2.7 3.2 5.2 6 7.5"/><path d="M67.2 430.3c-2-4.7-3.4-11.5-4.1-20.3 0-1-.6-4.4-1.5-10l.5-1.6c-.6-1.3-1.2-8.9-1.5-22.8 0-.3-.2-.6-.5-1v-4.1l.5-1v-.4l-1-3c0-1 .2-2 .6-3-.4-2-.6-10.1-.6-24.3 0-1.4.2-2.2.6-2.6-.4 0-.6-.1-.6-.5.7 0 1.2-.2 1.5-.6-.3-.6-.6-1-1-1l.6-1-.5-.5h.5c-.6-1.8-1-3-1-4.1v-4.1c0-2 .4-3.3 1-4v-23.8c0-.4-.2-.6-.5-.6 0-.3.2-.5.5-.5l.5-10.7v-2.7l-.5-2h.5l-.5-3.6v-6.2l-.5-1v-7.6l-.6-.5h.6c0-.3-.2-.6-.6-1V236l-.5-.6c.3 0 .5-.2.5-.5l-.5-.6c.3 0 .5-.2.5-.5v-9.1c0-2.7.2-5.6.6-8.6l-.6-.6c.4 0 .6-.2.6-.5v-26.3l-.6-4.1c.4 0 .6-.3.6-1l-.6-2c-1.4-1-2.1-2-2.5-3-1.4-.7-2-2-2-4.1-3.4-2.4-5.1-4.4-5.1-6.1 0-1-1.2-1.5-3.6-1.5-.3 0-1.2-1.2-2.5-3.6h-2l-1 1h-.5c0-.7-.5-1.3-1.5-2h-.5c-.7.3-1 .6-1 1l-3-1h-2c-5.1 1.7-8.3 2.8-9.6 3.5-2.4.3-3.6 1.3-3.6 3-2.3 1-3.5 2-3.5 3-1.7 2.4-2.6 3.9-2.6 4.5l.5 5a3 3 0 0 0-1 2.1v24.3c0 .3-.1.5-.5.5 0 .4.1.6.6.6l-.6 1v6l.6 1v8c0 .4-.2.6-.6.6l.6 1.1v4.5c0 1.4 0 3 .5 4.5-.3.4-.5 1-.5 2l.5 3-.5.6.5 1.5v14.2c0 .6.2 1.5.6 2.6h-.6l.6 2.6c0 .6-.2 1.5-.6 2.5.3 2 .7 3.3 1 3.6h-.4c.3 3 .6 4.7 1 5l-.5 1.1v1c0 .3.1.5.5.5l-.5 1v1l.5 1v3.5l.6 2-1 2.6c.3 0 .6.8 1 2.6l-.6 1c0 .6.2 1.1.6 1.4l-.6.6c0 .3.2.6.6 1l-.6 1.4.6 5.6v2l.5.6h-.5l.5 2c0 6.2.2 13.7.5 22.8l1.1.6c0 9.7.6 20.7 1.5 32.8-.3 0-.5.3-.5.6l.5 2v3.6l.6 1v2.5c0 3 .3 5 1 6.1H20c.3 1.3.5 3 .5 5 0 2.1.3 3.1 1 3.1v.5h-1v1c1 0 1.5.9 1.5 2.6v3l2.6 4h-.5c.6 5.8 1.4 8.7 2 8.7v3c0 .3.2.5.5.5v1l2.6 6.1c-.3 0-.5.2-.5.5 0 .4.2.6.5.6 1.7 5 3 8 3.6 9.1 1.4 0 2-.3 2-1 0-2.6.3-4 1-4h.5c0 2 .7 3 2 3a41 41 0 0 0 4.6 9.6l-.6 1.1c1.4.3 2 1.4 2 3h.6l.6-1.5v-1h1v-2.5c.3-.7.7-1.1 1-1.1h.5c1 1.7 1.7 2.6 2 2.6h.6v-3.6h1.5l1-.5h.5l.6.5c1 2.4 1.7 3.6 2 3.6v.5l1.5 5-.5.6 1 .5h.5l.5-.5c0-.6-.3-1.3-1-2v-1.5l1-1.1-1-1v-3c.7 0 1-1 1-3h.5c.4 1 .9 1.5 1.5 1.5 2.4 2.4 4 3.5 4.6 3.5l2 3.6h.5c.4 0 .6-.2.6-.5v-.6c0-.6-.2-1.5-.6-2.6h.6c-1.1-1.9-1.4-3-1.7-3"/></g><g fill="var(--title,#231815)"><path d="M396 404.3h14.8c4 0 7.2 1.1 9.3 3.3a10 10 0 0 1 2.8 7.4 10 10 0 0 1-2 6.4 11.8 11.8 0 0 1-5 3.7l7.9 11.5h-8.3l-6.9-10.4H403v10.4h-7v-32.3zm14.2 15.7a6 6 0 0 0 4.1-1.3c1-.8 1.4-2 1.4-3.3v-.1c0-1.5-.5-2.7-1.5-3.4-1-.8-2.3-1.2-4-1.2H403v9.2h7.2z"/><path d="M429.4 404.3h24.2v6.4h-17.2v6.5h15.1v6.4h-15.1v6.7h17.5v6.4h-24.5z"/><path d="M475.7 437.1a17.8 17.8 0 0 1-12.3-4.7 16.7 16.7 0 0 1-4.7-12 16 16 0 0 1 4.8-11.8 16.7 16.7 0 0 1 12.2-4.8 23 23 0 0 1 7.3 1.2 17.9 17.9 0 0 1 5.5 3.3l-4.6 5.4c-.6-.6-1.1-1-1.8-1.4-.6-.4-1.3-.8-2-1-.6-.3-1.3-.5-2-.6l-2.6-.2c-1.3 0-2.5.3-3.7.8a9.7 9.7 0 0 0-4.8 5.4c-.5 1.2-.8 2.5-.8 3.9 0 1.6.2 2.9.8 4.1a8.3 8.3 0 0 0 2 3.3 9.4 9.4 0 0 0 7 2.9c2.8 0 5-.7 6.8-2v-4.6h-7.1v-6.1h14v14a26.3 26.3 0 0 1-6 3.6 24 24 0 0 1-8 1.3z"/><path d="M496.6 404.3h7.1v32.3h-7z"/><path d="M527.5 437.1a16.7 16.7 0 0 1-15.8-10.1c-.9-2-1.3-4.2-1.3-6.4v-.2a16 16 0 0 1 4.8-11.7 16 16 0 0 1 5.5-3.5c2.1-.9 4.4-1.3 6.9-1.3a16.7 16.7 0 0 1 15.8 10.1c.8 2 1.3 4.2 1.3 6.4v.2a16.4 16.4 0 0 1-17.2 16.5zm0-6.6a9.2 9.2 0 0 0 9-6c.4-1.3.7-2.5.7-4a10.2 10.2 0 0 0-2.8-7 9.2 9.2 0 0 0-7-2.9c-1.3-.1-2.7 0-4 .6-1 .5-2 1.3-3 2.2a11.3 11.3 0 0 0-2.7 7v.2c.1 1.4.3 2.6.8 3.8.5 1.2 1.2 2.3 2 3.2a9 9 0 0 0 3.2 2.2c1 .5 2.4.7 3.9.7zm2.8-37 6 2.7-6 5.4H525z"/><path d="M550.9 404.3h6.5l15.2 20v-20h7v32.3h-6L558 416v20.6h-7v-32.3z"/><path d="M396.7 454.6h11.2c2.4 0 4.8.4 7 1.2 2.1.9 3.8 2 5.4 3.4a15.3 15.3 0 0 1 4.9 11.4v.1a15.6 15.6 0 0 1-4.9 11.5A17.6 17.6 0 0 1 408 487h-11.2zm11.2 28.8c2 0 3.8-.3 5.5-1a11.8 11.8 0 0 0 6.9-6.8c.6-1.4.9-3.1.9-5a13.2 13.2 0 0 0-3.7-9.2c-1.1-1.2-2.5-2-4.1-2.7a15 15 0 0 0-5.5-1h-7.5v25.6h7.5z"/><path d="M432.7 454.6H456v3.2h-19.6V469H454v3.2h-17.6v11.3h19.8v3.2h-23.5z"/><path d="M462.9 454.6h7.6l8.5 13.7 8.5-13.7h7.6V487h-7v-21.1l-9 13.7h-.2l-9-13.6v21h-7z"/><path d="M516.3 487.3c-4.3 0-7.7-1.2-10.2-3.6-2.5-2.3-3.8-6-3.8-10.7v-18.4h7.1V473a9 9 0 0 0 1.8 6c1.2 1.3 3 2 5.2 2a7 7 0 0 0 5.2-1.9c1.1-1.3 1.8-3.2 1.8-5.8v-18.5h7V473c0 2.5-.2 4.6-.9 6.4a12 12 0 0 1-2.8 4.5 10.6 10.6 0 0 1-4.5 2.7c-1.8.6-3.8.8-6 .8z"/><path d="M537.7 454.6h14.7c4 0 7.2 1 9.3 3.2a10 10 0 0 1 2.8 7.5 10 10 0 0 1-1.9 6.4 11.8 11.8 0 0 1-5 3.7l7.8 11.5h-8.3l-6.9-10.4h-5.4V487h-7.1zm14.3 15.6a6 6 0 0 0 4-1.3c1-.9 1.4-2 1.4-3.3v-.1c0-1.5-.5-2.7-1.5-3.5-1-.7-2.3-1.2-4-1.2h-7.1v9.3h7.2z"/><path d="M586.1 487.4a16.6 16.6 0 0 1-11.8-4.8 16.4 16.4 0 0 1-4.7-11.7v-.2c0-2.2.4-4.5 1.3-6.4a16 16 0 0 1 15.4-10.1 23.3 23.3 0 0 1 7.6 1.3c1 .4 1.9 1 2.8 1.6l2.3 2-4.5 5.2c-1.3-1.2-2.6-2-3.9-2.7-1.2-.6-2.7-1-4.4-1-1.4 0-2.5.2-3.7.8a9 9 0 0 0-5 5.4c-.4 1.1-.6 2.4-.6 3.8v.1a10 10 0 0 0 2.6 7 9.3 9.3 0 0 0 6.6 3.1c1.9 0 3.5-.3 4.7-1 1.2-.6 2.5-1.5 3.7-2.7l4.5 4.5c-.8.8-1.7 1.7-2.6 2.3-.8.8-1.8 1.3-2.9 1.9-1 .5-2.2.8-3.4 1.2-1 .3-2.4.4-4 .4z"/><path d="M605.4 454.6h7V487h-7z"/><path d="M631.6 454.4h6.5l13.9 32.5h-7.4l-3-7.2H628l-2.9 7.2H618zm7.4 19-4.3-10.5-4.3 10.4z"/></g></svg>